<?xml version="1.0" encoding="UTF-8"?>
<!DOCTYPE svg PUBLIC "-//W3C//DTD SVG 1.1//EN" "http://www.w3.org/Graphics/SVG/1.1/DTD/svg11.dtd">
<svg version="1.1" xmlns="http://www.w3.org/2000/svg" xmlns:xlink="http://www.w3.org/1999/xlink" x="0" y="0" width="221.107" height="221.107" viewBox="0, 0, 221.107, 221.107">
  <g id="Background">
    <rect x="0" y="0" width="221.107" height="221.107" fill="#FFFFFF"/>
  </g>
  <g id="Pirate">
    <path d="M110.553,29.833 C157.894,29.833 196.273,68.209 196.272,115.547 C196.273,162.889 157.894,201.264 110.553,201.264 C63.214,201.264 24.839,162.889 24.839,115.547 C24.839,68.209 63.214,29.833 110.553,29.833 z M113.729,72.295 C112.085,72.278 110.394,72.892 109.044,73.768 C105.486,76.07 103.317,79.895 101.459,83.599 C101.206,84.119 100.965,84.646 100.726,85.174 C101.711,86.055 102.695,86.937 103.679,87.82 C104.952,85.003 106.557,81.931 109.599,80.73 C111.184,80.075 113.181,80.619 114.107,82.07 C115.969,84.582 116.984,87.621 118.169,90.497 C118.724,92.065 119.42,93.64 119.796,95.232 C116.716,108.36 113.732,121.519 110.58,134.625 C110.443,134.976 110.451,135.351 110.346,135.709 C104.444,130.931 95.778,129.57 88.803,132.779 C85.199,134.457 82.193,137.813 81.777,141.859 C81.744,142.15 81.724,142.439 81.716,142.728 L74.735,142.728 C74.759,144.218 74.785,145.723 74.811,147.232 L82.554,147.232 C83.332,149.173 84.598,150.933 86.134,152.333 C91.147,157.025 98.637,158.819 105.321,157.218 C109.413,156.211 113.412,153.593 114.952,149.546 C115.215,148.789 115.414,148.014 115.583,147.232 L124.433,147.232 C124.407,145.723 124.381,144.218 124.357,142.728 L116.406,142.728 C116.473,142.382 116.542,142.036 116.621,141.693 C118.821,130.236 121.183,118.795 123.685,107.408 C126.09,116.192 128.331,125.052 131.546,133.58 C132.411,135.772 133.711,138.173 136.073,138.986 C138.577,139.74 141.173,138.319 142.842,136.517 C144.264,135.097 145.383,133.439 146.444,131.737 L146.376,131.639 L146.35,131.605 C145.565,130.561 144.776,129.504 143.994,128.452 C143.161,129.945 141.99,131.676 140.139,131.869 C138.583,131.667 137.726,130.089 136.99,128.864 C134.808,124.758 133.644,120.204 132.161,115.804 C128.554,104.286 125.75,92.516 121.673,81.149 C120.524,78.181 119.188,75.025 116.549,73.088 C115.684,72.544 114.715,72.306 113.729,72.295 z M111.388,147.232 C111.003,148.564 109.603,149.534 108.304,149.939 C104.094,151.415 99.447,150.867 95.24,149.682 C93.312,149.108 91.378,148.334 89.683,147.232 L111.388,147.232 z M94.274,138.038 C99.087,137.985 103.963,139.224 108.036,141.84 C108.436,142.111 108.84,142.407 109.221,142.728 L85.93,142.728 C85.816,141.874 86.017,141.001 86.692,140.383 C88.53,138.522 91.316,138.189 93.809,138.05 C93.964,138.045 94.118,138.04 94.274,138.039 z" fill="#373535"/>
    <path d="M165.582,155.164 L168.696,155.164 L168.696,155.164 L165.582,155.164 L165.582,155.164 z" fill="#373535"/>
  </g>
</svg>
